<svg width="1200" height="700" viewBox="0 0 1200 700" xmlns="http://www.w3.org/2000/svg">
  <defs>
    <linearGradient id="bgGrad" x1="0" y1="0" x2="1" y2="1">
      <stop offset="0%" stop-color="#0f172a" />
      <stop offset="100%" stop-color="#111827" />
    </linearGradient>
    <linearGradient id="heroGrad" x1="0" y1="0" x2="1" y2="1">
      <stop offset="0%" stop-color="#f59e0b" />
      <stop offset="100%" stop-color="#d97706" />
    </linearGradient>
  </defs>
  <rect width="1200" height="700" fill="url(#bgGrad)" rx="30" />
  <rect x="40" y="40" width="1120" height="220" rx="30" fill="url(#heroGrad)" opacity="0.95" />
  <text x="80" y="100" fill="#ffffff" font-family="Inter, Arial, sans-serif" font-size="40" font-weight="700">Dressingue Marketplace</text>
  <text x="80" y="150" fill="#f8fafc" font-family="Inter, Arial, sans-serif" font-size="20" opacity="0.8">Vue d'ensemble claire et professionnelle pour une étude de marché efficace.</text>
  <rect x="80" y="180" width="220" height="50" rx="25" fill="#ffffff" opacity="0.18" />
  <text x="105" y="215" fill="#f8fafc" font-family="Inter, Arial, sans-serif" font-size="16" font-weight="600">Découvrir le catalogue</text>
  <rect x="40" y="300" width="520" height="170" rx="24" fill="#111827" stroke="#ffffff" stroke-opacity="0.08" />
  <rect x="580" y="300" width="520" height="170" rx="24" fill="#111827" stroke="#ffffff" stroke-opacity="0.08" />
  <rect x="40" y="500" width="520" height="160" rx="24" fill="#111827" stroke="#ffffff" stroke-opacity="0.08" />
  <rect x="580" y="500" width="520" height="160" rx="24" fill="#111827" stroke="#ffffff" stroke-opacity="0.08" />
  <text x="80" y="345" fill="#f8fafc" font-family="Inter, Arial, sans-serif" font-size="18" font-weight="700">Statistiques clés</text>
  <text x="80" y="380" fill="#cbd5e1" font-family="Inter, Arial, sans-serif" font-size="14">Produits, votes et avis en un coup d’œil.</text>
  <circle cx="90" cy="420" r="18" fill="#fbbf24" opacity="0.3" />
  <text x="120" y="428" fill="#f8fafc" font-family="Inter, Arial, sans-serif" font-size="32" font-weight="700">128</text>
  <text x="120" y="455" fill="#94a3b8" font-family="Inter, Arial, sans-serif" font-size="14">Produits actifs</text>
  <circle cx="90" cy="510" r="18" fill="#38bdf8" opacity="0.3" />
  <text x="120" y="518" fill="#f8fafc" font-family="Inter, Arial, sans-serif" font-size="32" font-weight="700">542</text>
  <text x="120" y="545" fill="#94a3b8" font-family="Inter, Arial, sans-serif" font-size="14">Votes</text>
  <circle cx="90" cy="600" r="18" fill="#a78bfa" opacity="0.3" />
  <text x="120" y="608" fill="#f8fafc" font-family="Inter, Arial, sans-serif" font-size="32" font-weight="700">84</text>
  <text x="120" y="635" fill="#94a3b8" font-family="Inter, Arial, sans-serif" font-size="14">Avis récents</text>
  <text x="620" y="345" fill="#f8fafc" font-family="Inter, Arial, sans-serif" font-size="18" font-weight="700">Actions rapides</text>
  <text x="620" y="380" fill="#cbd5e1" font-family="Inter, Arial, sans-serif" font-size="14">Paramètres, export et gestion des produits.</text>
  <rect x="620" y="400" width="180" height="120" rx="20" fill="#1f2937" />
  <rect x="830" y="400" width="180" height="120" rx="20" fill="#1f2937" />
  <rect x="940" y="420" width="120" height="40" rx="20" fill="#f59e0b" />
  <text x="970" y="448" fill="#0f172a" font-family="Inter, Arial, sans-serif" font-size="14" font-weight="700">Exporter</text>
  <text x="650" y="455" fill="#cbd5e1" font-family="Inter, Arial, sans-serif" font-size="13">Exporter les tendances</text>
  <text x="650" y="510" fill="#cbd5e1" font-family="Inter, Arial, sans-serif" font-size="13">Gérer les avis</text>
  <rect x="580" y="320" width="520" height="60" rx="18" fill="#0f172a" opacity="0.9" />
  <text x="610" y="355" fill="#f8fafc" font-family="Inter, Arial, sans-serif" font-size="16" font-weight="700">Menu principal</text>
  <text x="790" y="355" fill="#94a3b8" font-family="Inter, Arial, sans-serif" font-size="14">Accueil · Dashboard · Produits</text>
</svg>